<svg width="16" height="16" viewBox="0 0 16 16" fill="none" xmlns="http://www.w3.org/2000/svg">
<rect width="16" height="16" fill="#F7E296"/>
<path fill-rule="evenodd" clip-rule="evenodd" d="M4 3.00139V12.9986H8.06367C8.71874 13.0145 9.36996 12.8951 9.9759 12.6479C10.5818 12.4008 11.1292 12.0314 11.5832 11.5633C12.0486 11.094 12.4137 10.5366 12.6568 9.92436C12.8999 9.31214 13.016 8.65766 12.9982 8C13.016 7.34233 12.8999 6.68785 12.6568 6.07563C12.4137 5.46341 12.0486 4.90601 11.5832 4.4367C11.1292 3.96859 10.5818 3.59923 9.97587 3.35212C9.36994 3.10502 8.71873 2.98557 8.06367 3.00139H4ZM6.30769 10.8409V5.15909H8.06397C8.42509 5.14484 8.78523 5.24623 9.12134 5.3778C9.45746 5.50937 9.76216 5.70901 10.0159 5.96396C10.2707 6.23698 10.468 6.55757 10.5964 6.907C10.7247 7.25643 10.8258 7.62769 10.8077 7.9991C10.8258 8.37052 10.7247 8.74178 10.5964 9.09122C10.4681 9.44065 10.2707 9.76123 10.0159 10.0343C9.7622 10.2893 9.45751 10.4889 9.12139 10.6205C8.78526 10.7521 8.4251 10.8552 8.06397 10.8409H6.32572H6.30769Z" fill="black"/>
</svg>
