<svg width="71" height="87" viewBox="0 0 71 87" fill="none" xmlns="http://www.w3.org/2000/svg">
<g clip-path="url(#clip0)">
<path d="M53.3491 1.49C53.3491 0.754 52.7711 0 52.0381 0H9.05312C8.32012 0 7.67212 0.754 7.67212 1.49V5.012H53.3481V1.49H53.3491Z" fill="#363636"/>
<path d="M54.202 81.809H44.605V71.426H37.647V73.933H18.774C18.237 72.679 17.017 71.785 15.593 71.785H3.559C1.642 71.784 0 73.387 0 75.311V78.329C0 80.253 1.642 81.809 3.559 81.809H15.594C17.105 81.809 18.386 80.913 18.863 79.483H37.648V81.809H28.13C27.597 81.809 27.12 82.246 27.12 82.781V85.953C27.12 86.488 27.598 87.001 28.13 87.001H54.202C54.735 87.001 55.132 86.488 55.132 85.953V82.78C55.132 82.245 54.735 81.809 54.202 81.809Z" fill="#363636"/>
<path d="M60.666 12.05C59.805 9.113 57.099 7 53.895 7H7.148C3.25 7 0 10.109 0 14.021V60.921C0 64.833 3.25 68.042 7.148 68.042H53.895C57.793 68.042 61.021 64.833 61.021 60.921V50.575C67.087 46.371 71.022 39.364 71.022 31.411C71.021 23.332 66.89 16.23 60.666 12.05ZM12.238 61.811C8.979 61.811 6.337 59.161 6.337 55.89C6.337 52.62 8.979 49.968 12.238 49.968C15.497 49.968 18.14 52.62 18.14 55.89C18.14 59.161 15.497 61.811 12.238 61.811ZM18.199 29.206C18.199 29.992 17.564 30.628 16.781 30.628H7.841C7.058 30.628 6.423 29.991 6.423 29.206V15.046C6.423 14.26 7.058 13.623 7.841 13.623H16.78C17.563 13.623 18.198 14.26 18.198 15.046L18.199 29.206ZM47.762 51.518C36.686 51.518 27.705 42.508 27.705 31.395C27.705 20.282 36.685 11.271 47.762 11.271C58.839 11.271 67.82 20.281 67.82 31.395C67.82 42.509 58.839 51.518 47.762 51.518Z" fill="#363636"/>
<path d="M48.188 44.458C54.9192 44.458 60.376 38.9829 60.376 32.229C60.376 25.4751 54.9192 20 48.188 20C41.4568 20 36 25.4751 36 32.229C36 38.9829 41.4568 44.458 48.188 44.458Z" fill="#363636"/>
<path d="M31.562 33.171C32.3545 33.171 32.997 32.5286 32.997 31.736C32.997 30.9435 32.3545 30.301 31.562 30.301C30.7694 30.301 30.127 30.9435 30.127 31.736C30.127 32.5286 30.7694 33.171 31.562 33.171Z" fill="#363636"/>
<path d="M63.9631 33.171C64.7556 33.171 65.3981 32.5286 65.3981 31.736C65.3981 30.9435 64.7556 30.301 63.9631 30.301C63.1705 30.301 62.5281 30.9435 62.5281 31.736C62.5281 32.5286 63.1705 33.171 63.9631 33.171Z" fill="#363636"/>
<path d="M39.1091 19.429C39.9016 19.429 40.5441 18.7865 40.5441 17.994C40.5441 17.2015 39.9016 16.559 39.1091 16.559C38.3165 16.559 37.6741 17.2015 37.6741 17.994C37.6741 18.7865 38.3165 19.429 39.1091 19.429Z" fill="#363636"/>
<path d="M56.4151 46.912C57.2049 46.912 57.8451 46.2691 57.8451 45.476C57.8451 44.6829 57.2049 44.04 56.4151 44.04C55.6253 44.04 54.9851 44.6829 54.9851 45.476C54.9851 46.2691 55.6253 46.912 56.4151 46.912Z" fill="#363636"/>
<path d="M55.697 19C56.4895 19 57.132 18.3575 57.132 17.565C57.132 16.7725 56.4895 16.13 55.697 16.13C54.9044 16.13 54.262 16.7725 54.262 17.565C54.262 18.3575 54.9044 19 55.697 19Z" fill="#363636"/>
<path d="M39.8281 47.341C40.6206 47.341 41.2631 46.6985 41.2631 45.906C41.2631 45.1135 40.6206 44.471 39.8281 44.471C39.0355 44.471 38.3931 45.1135 38.3931 45.906C38.3931 46.6985 39.0355 47.341 39.8281 47.341Z" fill="#363636"/>
</g>
<defs>
<clipPath id="clip0">
<rect width="71" height="87" fill="white"/>
</clipPath>
</defs>
</svg>
