<svg width="107" height="65" viewBox="0 0 107 65" fill="none" xmlns="http://www.w3.org/2000/svg">
<g clip-path="url(#clip0)">
<path d="M98.967 4.07397C99.719 5.51497 100.176 7.15398 100.176 8.89197V29.994C100.176 34.61 97.084 38.521 92.93 39.894C91.605 43.881 89.152 47.748 84.879 50.326C76.203 55.557 53.755 55.163 53.681 55.163C53.603 55.163 31.168 55.558 22.492 50.326C18.276 47.781 15.784 43.979 14.45 40.047C10.032 38.838 6.694 34.796 6.694 29.994V8.89297C6.694 7.20497 7.121 5.61097 7.833 4.19997C4.17 5.10897 0 6.91797 0 10.434C0 16.677 0 36.121 0 40.417C0 50.668 11.839 64.85 53.657 64.85C95.477 64.85 107.314 50.668 107.314 40.417C107.314 36.121 107.314 16.677 107.314 10.434C107.313 6.74997 102.738 4.93997 98.967 4.07397Z" fill="#363636"/>
<path d="M20.5611 38.459H86.0841C91.6481 38.459 96.1581 33.946 96.1581 28.382V9.93499C96.1581 4.37199 91.6481 -0.140015 86.0841 -0.140015H20.5611C14.9971 -0.140015 10.4861 4.37099 10.4861 9.93499V28.382C10.4861 33.946 14.9971 38.459 20.5611 38.459ZM83.6951 9.46799C84.5621 9.46799 85.2641 10.171 85.2641 11.038C85.2641 11.904 84.5621 12.607 83.6951 12.607C82.8281 12.607 82.1271 11.904 82.1271 11.038C82.1271 10.17 82.8281 9.46799 83.6951 9.46799ZM83.6951 13.507C84.5621 13.507 85.2641 14.21 85.2641 15.075C85.2641 15.942 84.5621 16.644 83.6951 16.644C82.8281 16.644 82.1271 15.942 82.1271 15.075C82.1271 14.21 82.8281 13.507 83.6951 13.507ZM83.6951 17.546C84.5621 17.546 85.2641 18.248 85.2641 19.115C85.2641 19.981 84.5621 20.684 83.6951 20.684C82.8281 20.684 82.1271 19.981 82.1271 19.115C82.1271 18.248 82.8281 17.546 83.6951 17.546ZM83.6951 21.373C84.5621 21.373 85.2641 22.077 85.2641 22.942C85.2641 23.809 84.5621 24.51 83.6951 24.51C82.8281 24.51 82.1271 23.809 82.1271 22.942C82.1271 22.076 82.8281 21.373 83.6951 21.373ZM83.6951 25.412C84.5621 25.412 85.2641 26.114 85.2641 26.981C85.2641 27.846 84.5621 28.549 83.6951 28.549C82.8281 28.549 82.1271 27.845 82.1271 26.981C82.1271 26.114 82.8281 25.412 83.6951 25.412ZM79.6561 9.46799C80.5231 9.46799 81.2241 10.171 81.2241 11.038C81.2241 11.904 80.5231 12.607 79.6561 12.607C78.7911 12.607 78.0881 11.904 78.0881 11.038C78.0881 10.17 78.7911 9.46799 79.6561 9.46799ZM79.6561 25.412C80.5231 25.412 81.2241 26.114 81.2241 26.981C81.2241 27.846 80.5231 28.549 79.6561 28.549C78.7911 28.549 78.0881 27.845 78.0881 26.981C78.0881 26.114 78.7911 25.412 79.6561 25.412ZM75.6191 9.46799C76.4841 9.46799 77.1871 10.171 77.1871 11.038C77.1871 11.904 76.4841 12.607 75.6191 12.607C74.7521 12.607 74.0501 11.904 74.0501 11.038C74.0501 10.17 74.7521 9.46799 75.6191 9.46799ZM75.6191 13.507C76.4841 13.507 77.1871 14.21 77.1871 15.075C77.1871 15.942 76.4841 16.644 75.6191 16.644C74.7521 16.644 74.0501 15.942 74.0501 15.075C74.0501 14.21 74.7521 13.507 75.6191 13.507ZM75.6191 17.546C76.4841 17.546 77.1871 18.248 77.1871 19.115C77.1871 19.981 76.4841 20.684 75.6191 20.684C74.7521 20.684 74.0501 19.981 74.0501 19.115C74.0501 18.248 74.7521 17.546 75.6191 17.546ZM75.6191 21.373C76.4841 21.373 77.1871 22.077 77.1871 22.942C77.1871 23.809 76.4841 24.51 75.6191 24.51C74.7521 24.51 74.0501 23.809 74.0501 22.942C74.0501 22.076 74.7521 21.373 75.6191 21.373ZM75.6191 25.412C76.4841 25.412 77.1871 26.114 77.1871 26.981C77.1871 27.846 76.4841 28.549 75.6191 28.549C74.7521 28.549 74.0501 27.845 74.0501 26.981C74.0501 26.114 74.7521 25.412 75.6191 25.412ZM67.9651 9.46799C68.8321 9.46799 69.5331 10.171 69.5331 11.038C69.5331 11.904 68.8321 12.607 67.9651 12.607C67.0981 12.607 66.3971 11.904 66.3971 11.038C66.3961 10.17 67.1001 9.46799 67.9651 9.46799ZM67.9651 17.546C68.8321 17.546 69.5331 18.248 69.5331 19.115C69.5331 19.981 68.8321 20.684 67.9651 20.684C67.0981 20.684 66.3971 19.981 66.3971 19.115C66.3961 18.248 67.1001 17.546 67.9651 17.546ZM67.9651 21.427C68.8321 21.427 69.5331 22.128 69.5331 22.995C69.5331 23.86 68.8321 24.564 67.9651 24.564C67.0981 24.564 66.3971 23.86 66.3971 22.995C66.3961 22.128 67.1001 21.427 67.9651 21.427ZM67.9651 25.412C68.8321 25.412 69.5331 26.114 69.5331 26.981C69.5331 27.846 68.8321 28.549 67.9651 28.549C67.0981 28.549 66.3971 27.845 66.3971 26.981C66.3961 26.114 67.1001 25.412 67.9651 25.412ZM63.9261 9.46799C64.7931 9.46799 65.4961 10.171 65.4961 11.038C65.4961 11.904 64.7931 12.607 63.9261 12.607C63.0611 12.607 62.3571 11.904 62.3571 11.038C62.3561 10.17 63.0611 9.46799 63.9261 9.46799ZM63.9261 17.546C64.7931 17.546 65.4961 18.248 65.4961 19.115C65.4961 19.981 64.7931 20.684 63.9261 20.684C63.0611 20.684 62.3571 19.981 62.3571 19.115C62.3561 18.248 63.0611 17.546 63.9261 17.546ZM63.9261 25.412C64.7931 25.412 65.4961 26.114 65.4961 26.981C65.4961 27.846 64.7931 28.549 63.9261 28.549C63.0611 28.549 62.3571 27.845 62.3571 26.981C62.3561 26.114 63.0611 25.412 63.9261 25.412ZM59.8881 9.46799C60.7531 9.46799 61.4571 10.171 61.4571 11.038C61.4571 11.904 60.7531 12.607 59.8881 12.607C59.0211 12.607 58.3201 11.904 58.3201 11.038C58.3191 10.17 59.0211 9.46799 59.8881 9.46799ZM59.8881 13.507C60.7531 13.507 61.4571 14.21 61.4571 15.075C61.4571 15.942 60.7531 16.644 59.8881 16.644C59.0211 16.644 58.3201 15.942 58.3201 15.075C58.3191 14.21 59.0211 13.507 59.8881 13.507ZM59.8881 17.546C60.7531 17.546 61.4571 18.248 61.4571 19.115C61.4571 19.981 60.7531 20.684 59.8881 20.684C59.0211 20.684 58.3201 19.981 58.3201 19.115C58.3191 18.248 59.0211 17.546 59.8881 17.546ZM59.8881 25.412C60.7531 25.412 61.4571 26.114 61.4571 26.981C61.4571 27.846 60.7531 28.549 59.8881 28.549C59.0211 28.549 58.3201 27.845 58.3201 26.981C58.3191 26.114 59.0211 25.412 59.8881 25.412ZM51.5981 9.46799C52.4651 9.46799 53.1671 10.171 53.1671 11.038C53.1671 11.904 52.4651 12.607 51.5981 12.607C50.7311 12.607 50.0301 11.904 50.0301 11.038C50.0291 10.17 50.7311 9.46799 51.5981 9.46799ZM51.5981 13.507C52.4651 13.507 53.1671 14.21 53.1671 15.075C53.1671 15.942 52.4651 16.644 51.5981 16.644C50.7311 16.644 50.0301 15.942 50.0301 15.075C50.0291 14.21 50.7311 13.507 51.5981 13.507ZM51.5981 17.546C52.4651 17.546 53.1671 18.248 53.1671 19.115C53.1671 19.981 52.4651 20.684 51.5981 20.684C50.7311 20.684 50.0301 19.981 50.0301 19.115C50.0291 18.248 50.7311 17.546 51.5981 17.546ZM51.5981 21.427C52.4651 21.427 53.1671 22.128 53.1671 22.995C53.1671 23.86 52.4651 24.564 51.5981 24.564C50.7311 24.564 50.0301 23.86 50.0301 22.995C50.0291 22.128 50.7311 21.427 51.5981 21.427ZM51.5981 25.412C52.4651 25.412 53.1671 26.114 53.1671 26.981C53.1671 27.846 52.4651 28.549 51.5981 28.549C50.7311 28.549 50.0301 27.845 50.0301 26.981C50.0291 26.114 50.7311 25.412 51.5981 25.412ZM47.5591 13.507C48.4261 13.507 49.1271 14.21 49.1271 15.075C49.1271 15.942 48.4261 16.644 47.5591 16.644C46.6921 16.644 45.9901 15.942 45.9901 15.075C45.9901 14.21 46.6911 13.507 47.5591 13.507ZM39.0571 13.295C39.9221 13.295 40.6261 13.998 40.6261 14.863C40.6261 15.73 39.9221 16.432 39.0571 16.432C38.1901 16.432 37.4861 15.729 37.4861 14.863C37.4861 13.998 38.1891 13.295 39.0571 13.295ZM39.0571 17.333C39.9221 17.333 40.6261 18.036 40.6261 18.903C40.6261 19.769 39.9221 20.473 39.0571 20.473C38.1901 20.473 37.4861 19.769 37.4861 18.903C37.4861 18.036 38.1891 17.333 39.0571 17.333ZM35.0181 9.25499C35.8831 9.25499 36.5861 9.95799 36.5861 10.825C36.5861 11.691 35.8821 12.393 35.0181 12.393C34.1511 12.393 33.4491 11.69 33.4491 10.825C33.4491 9.95799 34.1501 9.25499 35.0181 9.25499ZM35.0181 13.295C35.8831 13.295 36.5861 13.998 36.5861 14.863C36.5861 15.73 35.8821 16.432 35.0181 16.432C34.1511 16.432 33.4491 15.729 33.4491 14.863C33.4491 13.998 34.1501 13.295 35.0181 13.295ZM35.0181 17.333C35.8831 17.333 36.5861 18.036 36.5861 18.903C36.5861 19.769 35.8821 20.473 35.0181 20.473C34.1511 20.473 33.4491 19.769 33.4491 18.903C33.4491 18.036 34.1501 17.333 35.0181 17.333ZM35.0181 21.373C35.8831 21.373 36.5861 22.077 36.5861 22.942C36.5861 23.809 35.8821 24.51 35.0181 24.51C34.1511 24.51 33.4491 23.809 33.4491 22.942C33.4491 22.076 34.1501 21.373 35.0181 21.373ZM30.7641 13.295C31.6311 13.295 32.3331 13.998 32.3331 14.863C32.3331 15.73 31.6311 16.432 30.7641 16.432C29.8971 16.432 29.1961 15.729 29.1961 14.863C29.1961 13.998 29.8971 13.295 30.7641 13.295ZM30.7641 17.333C31.6311 17.333 32.3331 18.036 32.3331 18.903C32.3331 19.769 31.6311 20.473 30.7641 20.473C29.8971 20.473 29.1961 19.769 29.1961 18.903C29.1961 18.036 29.8971 17.333 30.7641 17.333ZM30.7641 21.373C31.6311 21.373 32.3331 22.077 32.3331 22.942C32.3331 23.809 31.6311 24.51 30.7641 24.51C29.8971 24.51 29.1961 23.809 29.1961 22.942C29.1961 22.076 29.8971 21.373 30.7641 21.373ZM30.7641 25.412C31.6311 25.412 32.3331 26.114 32.3331 26.981C32.3331 27.846 31.6311 28.549 30.7641 28.549C29.8971 28.549 29.1961 27.845 29.1961 26.981C29.1961 26.114 29.8971 25.412 30.7641 25.412ZM26.3001 9.25499C27.1671 9.25499 27.8711 9.95799 27.8711 10.825C27.8711 11.691 27.1671 12.393 26.3001 12.393C25.4351 12.393 24.7311 11.69 24.7311 10.825C24.7311 9.95799 25.4351 9.25499 26.3001 9.25499ZM26.3001 13.295C27.1671 13.295 27.8711 13.998 27.8711 14.863C27.8711 15.73 27.1671 16.432 26.3001 16.432C25.4351 16.432 24.7311 15.729 24.7311 14.863C24.7311 13.998 25.4351 13.295 26.3001 13.295ZM26.3001 17.333C27.1671 17.333 27.8711 18.036 27.8711 18.903C27.8711 19.769 27.1671 20.473 26.3001 20.473C25.4351 20.473 24.7311 19.769 24.7311 18.903C24.7311 18.036 25.4351 17.333 26.3001 17.333ZM26.3001 21.373C27.1671 21.373 27.8711 22.077 27.8711 22.942C27.8711 23.809 27.1671 24.51 26.3001 24.51C25.4351 24.51 24.7311 23.809 24.7311 22.942C24.7311 22.076 25.4351 21.373 26.3001 21.373ZM22.2631 13.295C23.1281 13.295 23.8321 13.998 23.8321 14.863C23.8321 15.73 23.1281 16.432 22.2631 16.432C21.3961 16.432 20.6941 15.729 20.6941 14.863C20.6941 13.998 21.3961 13.295 22.2631 13.295ZM22.2631 17.333C23.1281 17.333 23.8321 18.036 23.8321 18.903C23.8321 19.769 23.1281 20.473 22.2631 20.473C21.3961 20.473 20.6941 19.769 20.6941 18.903C20.6941 18.036 21.3961 17.333 22.2631 17.333Z" fill="#363636"/>
</g>
<defs>
<clipPath id="clip0">
<rect width="107" height="65" fill="white"/>
</clipPath>
</defs>
</svg>
