<svg width="56" height="98" viewBox="0 0 56 98" fill="none" xmlns="http://www.w3.org/2000/svg">
<g clip-path="url(#clip0)">
<path d="M54.494 31.826H52.979V27.186C52.979 22.134 48.892 18 43.897 18H9.082C4.086 18.001 0 22.134 0 27.186V70.054C0 75.106 4.087 79.239 9.083 79.239H43.898C48.893 79.239 52.98 75.106 52.98 70.054V66.639H54.495C54.91 66.639 55.252 66.295 55.252 65.875V52.096C55.252 51.675 54.91 51.33 54.495 51.33H52.98V42.542H54.495C55.327 42.542 56.009 41.854 56.009 41.011V33.357C56.008 32.515 55.326 31.826 54.494 31.826ZM34.082 28.717C37.008 28.717 39.381 31.115 39.381 34.075C39.381 37.035 37.008 39.433 34.082 39.433C31.156 39.433 28.784 37.035 28.784 34.075C28.784 31.115 31.156 28.717 34.082 28.717ZM18.945 28.717C21.87 28.717 24.243 31.115 24.243 34.075C24.243 37.035 21.87 39.433 18.945 39.433C16.019 39.433 13.647 37.035 13.647 34.075C13.647 31.115 16.019 28.717 18.945 28.717ZM5.297 49.026C5.297 46.067 7.668 43.668 10.595 43.668C13.521 43.668 15.893 46.067 15.893 49.026C15.893 51.985 13.52 54.384 10.595 54.384C7.668 54.385 5.297 51.985 5.297 49.026ZM18.945 68.523C16.019 68.523 13.647 66.125 13.647 63.165C13.647 60.205 16.019 57.807 18.945 57.807C21.87 57.807 24.243 60.205 24.243 63.165C24.243 66.125 21.87 68.523 18.945 68.523ZM20.435 48.62C20.435 45.238 23.146 42.496 26.49 42.496C29.834 42.496 32.545 45.238 32.545 48.62C32.545 52.002 29.834 54.744 26.49 54.744C23.146 54.743 20.435 52.002 20.435 48.62ZM34.082 68.523C31.156 68.523 28.784 66.125 28.784 63.165C28.784 60.205 31.156 57.807 34.082 57.807C37.008 57.807 39.381 60.205 39.381 63.165C39.381 66.125 37.008 68.523 34.082 68.523ZM42.384 54.385C39.457 54.385 37.086 51.986 37.086 49.027C37.086 46.068 39.457 43.669 42.384 43.669C45.31 43.669 47.682 46.068 47.682 49.027C47.682 51.985 45.31 54.385 42.384 54.385Z" fill="#363636"/>
<path d="M9.646 15.31H43.333C44.176 15.31 44.765 14.629 44.639 13.796L43.023 3.028C43.023 3.028 43.023 3.027 43.021 3.026C42.771 1.362 41.189 0 39.506 0H13.474C11.788 0 10.206 1.362 9.957 3.028L8.342 13.795C8.217 14.628 8.803 15.31 9.646 15.31Z" fill="#363636"/>
<path d="M43.333 82.671H9.646C8.803 82.671 8.217 83.354 8.342 84.187L9.957 94.954C10.207 96.62 11.789 97.982 13.473 97.982H39.505C41.189 97.982 42.771 96.62 43.022 94.956C43.022 94.955 43.022 94.955 43.022 94.954L44.637 84.187C44.765 83.354 44.176 82.671 43.333 82.671Z" fill="#363636"/>
</g>
<defs>
<clipPath id="clip0">
<rect width="56" height="98" fill="white"/>
</clipPath>
</defs>
</svg>
