<svg width="97" height="55" viewBox="0 0 97 55" fill="none" xmlns="http://www.w3.org/2000/svg">
<g clip-path="url(#clip0)">
<path d="M84.131 32.639V20.003C84.131 18.694 85.176 17.633 86.466 17.633L94.792 19.2141V11.02C94.792 8.66505 93.084 7.58905 90.59 6.75505L67.403 0.175049C69.019 1.56605 69.292 2.21505 69.292 4.57105V49.78C69.292 52.136 68.842 53.8461 67.325 54.9901L90.59 47.925C92.991 47.092 94.792 43.709 94.792 41.3531V33.44L86.466 35.007C85.176 35.009 84.131 33.947 84.131 32.639Z" fill="#363636"/>
<path d="M95.129 20.979L87.531 19.535C86.523 19.535 85.707 20.364 85.707 21.386V31.254C85.707 32.277 86.523 33.106 87.531 33.106L95.129 31.675C96.283 31.256 96.953 30.846 96.953 29.823V22.83C96.953 21.808 96.187 21.323 95.129 20.979Z" fill="#363636"/>
<path d="M67.1699 4.48303C67.1699 -0.596972 62.9379 0.0240287 62.9379 0.0240287C62.9379 0.0240287 5.83193 4.73803 2.83793 5.14503C-0.156074 5.55203 0.000926298 9.53203 0.000926298 9.53203C0.000926298 9.53203 -7.37024e-05 42.069 -7.37024e-05 45.812C-7.37024e-05 49.555 2.59893 49.565 2.59893 49.565L19.0759 50.968L27.2119 39.3C27.2119 39.3 28.3209 37.472 29.7169 37.472C31.1139 37.472 32.1489 39.333 32.1489 39.333L41.2099 52.854C41.2099 52.854 60.1049 54.763 63.7309 54.763C67.3569 54.762 67.1699 49.739 67.1699 49.739C67.1699 49.739 67.1699 9.56303 67.1699 4.48303ZM12.9819 37.192C9.28393 37.192 6.28593 32.591 6.28593 26.917C6.28593 21.243 9.28393 16.642 12.9819 16.642C16.6799 16.642 19.6779 21.243 19.6779 26.917C19.6779 32.591 16.6799 37.192 12.9819 37.192ZM49.1399 38.618C44.4779 38.618 40.6989 33.379 40.6989 26.917C40.6989 20.454 44.4789 15.215 49.1399 15.215C53.8019 15.215 57.5819 20.454 57.5819 26.917C57.5819 33.379 53.8019 38.618 49.1399 38.618Z" fill="#363636"/>
</g>
<defs>
<clipPath id="clip0">
<rect width="97" height="55" fill="white"/>
</clipPath>
</defs>
</svg>
